<svg id="Layer_1" data-name="Layer 1" xmlns="http://www.w3.org/2000/svg" xmlns:xlink="http://www.w3.org/1999/xlink" viewBox="0 0 59.52 77.15"><defs><linearGradient id="linear-gradient" x1="100.01" y1="136.52" x2="100.01" y2="104.57" gradientUnits="userSpaceOnUse"><stop offset="0"/><stop offset="0.09" stop-color="#070707"/><stop offset="0.22" stop-color="#1a1a1a"/><stop offset="0.37" stop-color="#3a3a3a"/><stop offset="0.54" stop-color="#676767"/><stop offset="0.73" stop-color="#a0a0a0"/><stop offset="0.93" stop-color="#e4e4e4"/><stop offset="1" stop-color="#fff"/></linearGradient><mask id="mask" x="-2.31" y="55.48" width="65.33" height="24.67" maskUnits="userSpaceOnUse"><g transform="translate(-69.65 -62.91)"><rect x="67.35" y="118.39" width="65.33" height="24.67" style="fill:url(#linear-gradient)"/></g></mask></defs><g style="mask:url(#mask)"><path d="M116.93,128.94l.11,11.12h-4.32a70.15,70.15,0,0,1-.52-8.58c-1.14.06-.68,5.27.36,8.58H107.7c-.39-4.76-.36-8.58-.36-8.58h-1s0,2,0,5c0,1.22.11,2.42.24,3.58H100.1c.34-4.76.45-8.58.45-8.58H99.41c0,2.55-.07,5.55-.28,8.58H93.71a65.56,65.56,0,0,0,0-8.58h-1s-.08,2,0,5c0,1.11,0,2.33-.13,3.58H85.86c.79-3.76,1-8.52,0-8.58,0,4-.21,6.82-.37,8.58H79.86l.07-11.12Zm0-9.57H79.88v8.5H117Z" transform="translate(-69.65 -62.91)"/></g><path d="M79.88,110.87H117v8.5H79.88ZM129,82.39c-1.39,9.57-11.9,9.76-11.9,9.76l-.18,17.65h-37l-.11-17.43s-8.71-1.58-9.85-7a12.45,12.45,0,0,1,4.69-13c8.31-6.06,15.66,1,15.66,1s0-2.79-5.28-4.57c2.47-4.79,15.22-9.29,22.26-2.27,5.81,5.79,6,10.81,5,14,2.67-3,2.38-8.61-1.15-12.44C121.05,65.48,130.54,71.84,129,82.39ZM85.22,96.27a73,73,0,0,1,.66,11C87.13,107.18,86.47,99.93,85.22,96.27Zm5.85-8.5s1.75,8.75,1.67,14.5c-.08,3,0,5,0,5h1S94.74,93.93,91.07,87.77Zm9.48,19.5S100,86.85,97.3,81.6c0,0,2.31,16,2.11,25.67Zm9.19-20.42a42.64,42.64,0,0,0-3.4,15.42c0,3,0,5,0,5h1S107.22,94.82,109.74,86.85Zm3.13,11c-1.25,3.15-1.92,9.39-.67,9.46A53.25,53.25,0,0,1,112.87,97.81Z" transform="translate(-69.65 -62.91)"/></svg>