<svg id="Layer_1" data-name="Layer 1" xmlns="http://www.w3.org/2000/svg" xmlns:xlink="http://www.w3.org/1999/xlink" viewBox="0 0 48.31 78.54"><defs><linearGradient id="linear-gradient" x1="94.37" y1="134.19" x2="94.37" y2="102.24" gradientUnits="userSpaceOnUse"><stop offset="0"/><stop offset="0.09" stop-color="#070707"/><stop offset="0.22" stop-color="#1a1a1a"/><stop offset="0.37" stop-color="#3a3a3a"/><stop offset="0.54" stop-color="#676767"/><stop offset="0.73" stop-color="#a0a0a0"/><stop offset="0.93" stop-color="#e4e4e4"/><stop offset="1" stop-color="#fff"/></linearGradient><mask id="mask" x="-13.65" y="56.54" width="65.33" height="24.67" maskUnits="userSpaceOnUse"><g transform="translate(-75.35 -60.52)"><rect x="61.7" y="117.06" width="65.33" height="24.67" style="fill:url(#linear-gradient)"/></g></mask></defs><g style="mask:url(#mask)"><path d="M112.84,139.06c0-.17,0-.34,0-.51,3.69.45,7.92.06,9.86-3.43a6.94,6.94,0,0,0,.14-6.92,7.75,7.75,0,0,0-6.07-3.79,13.79,13.79,0,0,0-1.65-.09,31.65,31.65,0,0,0-4.65.4c-1.32-2.19-3.54-3.76-7.43-4.61v-1.82H85.68v1.82c-9.88,2.17-9.05,8.93-9.84,19Zm3-11.71c1.4.08,3.33.19,4.67,1.83a4.88,4.88,0,0,1,0,5.07c-1.4,2.1-4.81,2.68-7.93,1.9a48.84,48.84,0,0,0-.94-8.26A15.07,15.07,0,0,1,115.89,127.35Z" transform="translate(-75.35 -60.52)"/></g><path d="M113,95.56H75.67c-.09-.87-.19-1.76-.32-2.66h38C113.2,93.8,113.1,94.69,113,95.56Zm9.79,12.81a7.76,7.76,0,0,1-6.07,3.8,16.43,16.43,0,0,1-1.65.08,31.56,31.56,0,0,1-4.65-.39c-1.32,2.19-3.54,3.75-7.43,4.61v1.82H85.68v-1.82c-10-2.19-9-9-9.86-19.17h37c0,.25,0,.48,0,.72,3.69-.45,7.92-.06,9.86,3.43A6.94,6.94,0,0,1,122.8,108.37Zm-2.23-6c-1.4-2.11-4.81-2.69-7.93-1.91a48.71,48.71,0,0,1-.94,8.26,14.7,14.7,0,0,0,4.19.54c1.4-.08,3.33-.19,4.67-1.82A4.88,4.88,0,0,0,120.57,102.33Zm-35-26.82c-2.62,6.19-1.64,11.42.74,14.41-.44-6.14-.39-8.75,2.06-13.9s-2.17-8.55-5.3-10A7.53,7.53,0,0,1,85.56,75.51Zm14-.38C97,81.32,98,86.55,100.36,89.54c-.45-6.14-.4-8.75,2-13.9s-2.17-8.55-5.29-10A7.53,7.53,0,0,1,99.61,75.13Zm-7-5.14C90,76.18,91,81.4,93.36,84.39c-.45-6.14-.4-8.75,2-13.9s-2.17-8.55-5.29-10A7.53,7.53,0,0,1,92.61,70Z" transform="translate(-75.35 -60.52)"/></svg>