<svg id="Layer_1" data-name="Layer 1" xmlns="http://www.w3.org/2000/svg" xmlns:xlink="http://www.w3.org/1999/xlink" viewBox="0 0 80.55 76.86"><defs><linearGradient id="linear-gradient" x1="100.64" y1="134.35" x2="100.64" y2="102.4" gradientUnits="userSpaceOnUse"><stop offset="0"/><stop offset="0.09" stop-color="#070707"/><stop offset="0.22" stop-color="#1a1a1a"/><stop offset="0.37" stop-color="#3a3a3a"/><stop offset="0.54" stop-color="#676767"/><stop offset="0.73" stop-color="#a0a0a0"/><stop offset="0.93" stop-color="#e4e4e4"/><stop offset="1" stop-color="#fff"/></linearGradient><mask id="mask" x="-3.94" y="54.86" width="90" height="24.67" maskUnits="userSpaceOnUse"><g transform="translate(-59.58 -61.36)"><rect x="55.64" y="116.22" width="90" height="24.67" style="fill:url(#linear-gradient)"/></g></mask></defs><g style="mask:url(#mask)"><path d="M135.07,120.81a2.57,2.57,0,0,1,2.53-2.76,2.31,2.31,0,0,1,.64.1h0a2.73,2.73,0,0,1,1.89,2.65v17.41H137C137.88,134,135.53,125.07,135.07,120.81Zm-33.93,4.73A20.34,20.34,0,0,0,82.3,138.22H120A20.34,20.34,0,0,0,101.14,125.54Zm-20.2,12.68a21.61,21.61,0,0,1,20.2-14h.16c.24,0,.47,0,.71,0,.48,0,1,0,1.44.08l.68.11c.49.06,1,.13,1.46.23.21,0,.4.11.61.15.49.12,1,.24,1.46.39l.55.2c.48.17,1,.33,1.42.53l.52.25c.46.21.92.42,1.36.66.18.1.34.21.5.31.43.25.87.5,1.28.78l.48.36c.4.29.8.57,1.17.88.17.14.32.3.49.44.35.31.7.62,1,1,.16.16.31.35.48.52.3.33.62.66.9,1s.32.42.48.63.52.67.76,1,.31.5.46.75.43.68.62,1,.28.59.42.88.34.66.48,1a6.55,6.55,0,0,1,.27.74h7.53a28.77,28.77,0,0,0-55.46,0Zm-14.28,0,.62-17.55a2.66,2.66,0,0,0-2.53-2.75,2.2,2.2,0,0,0-.36,0h0a2.69,2.69,0,0,0-2.17,2.7l.62,17.55Z" transform="translate(-59.58 -61.36)"/></g><path d="M101.14,61.36a28.77,28.77,0,1,0,28.77,28.77A28.77,28.77,0,0,0,101.14,61.36Zm21,23.51c.07.31.17.6.23.91s.14.9.2,1.35c0,.27.1.53.13.79.07.73.11,1.46.11,2.21s0,1.48-.11,2.21c0,.26-.09.52-.13.79-.06.45-.11.91-.2,1.35s-.16.6-.23.91-.18.78-.3,1.15-.24.66-.36,1-.23.68-.37,1-.31.67-.48,1-.27.6-.42.88-.41.69-.62,1-.29.51-.46.75-.5.69-.76,1-.31.43-.48.63c-.28.35-.6.68-.9,1-.17.17-.32.35-.48.52-.34.34-.69.64-1,1-.17.14-.32.3-.49.44-.37.31-.77.59-1.17.88-.16.11-.32.25-.48.36-.41.28-.85.53-1.28.78-.16.1-.32.21-.5.3-.44.25-.9.46-1.36.67l-.52.25c-.46.2-.94.36-1.42.53l-.55.2c-.48.15-1,.27-1.46.38-.21.05-.4.12-.61.16-.48.1-1,.17-1.46.23l-.68.11c-.47.05-1,.06-1.44.08-.24,0-.47,0-.71,0h-.16a21.62,21.62,0,0,1,0-43.24h.16c.19,0,.38,0,.57,0,.53,0,1.07,0,1.59.09.19,0,.37.06.55.09.54.07,1.07.14,1.59.25l.5.13c.53.12,1.05.25,1.56.41l.47.17c.51.18,1,.35,1.51.56l.44.22c.49.22,1,.44,1.44.7l.44.26c.45.27.9.53,1.33.82.15.1.29.22.44.33.41.3.82.59,1.21.91.16.13.3.28.45.41.37.32.73.64,1.08,1,.16.16.3.34.46.5.31.34.63.67.92,1,.17.2.31.41.46.61.27.35.54.69.78,1s.3.49.45.74.44.68.63,1,.28.58.42.87.34.67.48,1,.25.67.37,1,.25.64.36,1S122,84.49,122.1,84.87Zm-.61,5.26a20.35,20.35,0,1,1-20.35-20.34A20.34,20.34,0,0,1,121.49,90.13Zm18.64-22.47V115.2a2.71,2.71,0,0,1-1.89,2.64v0a2.76,2.76,0,0,1-.64.1,2.57,2.57,0,0,1-2.53-2.76c.49-4.53,3.11-14.27,1.77-18.16-.77-2.22-3.6-6.24-3.6-12.91,0-12.4,2.9-16.84,4.91-17.87l.09,0A1.42,1.42,0,0,1,140.13,67.66ZM68.76,66.39a124,124,0,0,1,1.16,14.75c0,4.58-.93,4.52-3.64,5.61l1,28.58a2.66,2.66,0,0,1-2.53,2.76,2.2,2.2,0,0,1-.36,0v0a2.67,2.67,0,0,1-2.17-2.7l1-28.58c-2.71-1.08-3.64-1-3.64-5.61a126.77,126.77,0,0,1,1.14-14.75h.64l.15,16.17h1.33l.33-16.17h.63l.29,16.17h1.32l.32-16.17h.69l.3,16.17h1.33l.11-16.17Z" transform="translate(-59.58 -61.36)"/></svg>