<svg id="Layer_1" data-name="Layer 1" xmlns="http://www.w3.org/2000/svg" viewBox="0 0 86.45 43.14"><path d="M83.93,120a1,1,0,0,1-2,.44L78.28,103.9H63.82l-4.68,16.59a1,1,0,0,1-1,.73.86.86,0,0,1-.28,0,1,1,0,0,1-.69-1.23l4.81-17L57.21,85.33a.55.55,0,0,1,0-.17l-.55-5.82a1,1,0,0,1,.9-1.09,1,1,0,0,1,1.09.9l.54,5.73,4.66,17H79.09a1,1,0,0,1,1,.78ZM61.82,92.24c-.51-2.26-1-4.62-1.47-6.65.75-5.62-.51-6.74-1.19-6.9h-.07l.51,5.45Zm9.87,8c-2.6,0-5.73.12-7.08.88H77.83C76.74,100.57,74.67,100.27,71.69,100.27Zm70.83-15.11.55-5.82a1,1,0,0,0-.9-1.09,1,1,0,0,0-1.09.9l-.54,5.73-4.66,17H120.62a1,1,0,0,0-1,.78L115.78,120a1,1,0,0,0,2,.44l3.69-16.54h14.47l4.68,16.59a1,1,0,0,0,1,.73.84.84,0,0,0,.27,0,1,1,0,0,0,.69-1.23l-4.81-17,4.81-17.57A.55.55,0,0,0,142.52,85.16Zm-2.42-1,.51-5.45h-.06c-.68.16-2,1.28-1.19,6.9-.45,2-1,4.39-1.48,6.65Zm-5,17c-1.34-.76-4.48-.88-7.08-.88-3,0-5,.3-6.14.88Zm-24.48,19.1-8.93-5.51a3,3,0,0,0-.6-.27l10.3-19.66h-23l10.3,19.66a2.82,2.82,0,0,0-.61.27l-8.93,5.51c-1,.62-1.14,1.13-.3,1.13a7.91,7.91,0,0,0,3.36-1.13L98,116.62a3.83,3.83,0,0,1,3.66,0l5.88,3.63a7.91,7.91,0,0,0,3.36,1.13C111.76,121.38,111.62,120.87,110.61,120.25Zm-37-26.36h52.4a1.09,1.09,0,0,0,1.08-1.08v-.07a1.08,1.08,0,0,0-1.08-1.07H73.65a1.07,1.07,0,0,0-1.07,1.07v.07A1.08,1.08,0,0,0,73.65,93.89Z" transform="translate(-56.63 -78.24)"/></svg>